<svg width="191" height="183" viewBox="0 0 191 183" fill="none" xmlns="http://www.w3.org/2000/svg">
<mask id="mask0_1_8" style="mask-type:luminance" maskUnits="userSpaceOnUse" x="0" y="0" width="191" height="183">
<path d="M191 0H0V183H191V0Z" fill="white"/>
</mask>
<g mask="url(#mask0_1_8)">
<path fill-rule="evenodd" clip-rule="evenodd" d="M178.192 137.243C151.825 180.998 93.4271 195.991 47.7579 170.728C2.08865 145.465 -13.5588 89.514 12.8083 45.7576C39.1756 2.00116 97.5729 -12.9909 143.242 12.2719C188.911 37.5347 204.558 93.486 178.192 137.243ZM30.4451 150.447C25.5495 138.386 24.7303 122.983 28.0422 106.403C23.1651 102.022 18.8584 97.6378 15.2035 93.3431C11.7501 89.2852 8.84398 85.2666 6.58755 81.3671C3.48817 106.434 12.1227 131.9 30.4451 150.447ZM8.44734 71.4208C10.3258 76.8513 14.172 83.0828 19.8286 89.7296C22.6554 93.0514 25.9086 96.4467 29.5478 99.8657C30.8271 94.9558 32.4576 89.9698 34.4411 84.9618C34.7421 85.3769 35.0826 85.7682 35.4604 86.1301C36.5851 87.2077 37.9783 87.9683 39.4894 88.3539C37.4132 93.7736 35.7754 99.1427 34.5688 104.385C37.7911 107.169 41.2559 109.954 44.9413 112.713C44.8315 113.25 44.7741 113.805 44.7741 114.372V119.79C40.7061 116.869 36.8645 113.903 33.2754 110.922C32.3145 116.742 31.9062 122.357 32.0397 127.655C32.4715 144.787 38.4637 157.717 48.6246 164.488L56.9534 150.667C57.3342 152.198 58.1509 153.612 59.3313 154.744C59.7609 155.155 60.2297 155.521 60.7293 155.836L53.8409 167.268C64.9256 171.853 79.2554 170.229 94.551 162.234C99.407 159.695 104.277 156.549 109.058 152.842C101.793 150.435 94.2338 147.459 86.5486 143.943V137.589C96.1344 142.111 105.505 145.764 114.319 148.501C115.312 147.631 116.299 146.737 117.278 145.82H125.339C125.436 145.82 125.533 145.818 125.629 145.815C124.079 147.402 122.506 148.933 120.915 150.407C125.825 151.717 130.52 152.719 134.936 153.404C143.772 154.774 151.327 154.849 157.175 153.693C163.254 148.155 168.616 141.698 173.023 134.383C179.3 123.967 183.038 112.813 184.419 101.581C179.774 101.656 174.697 101.254 169.312 100.419C158.766 98.7832 146.832 95.4549 134.29 90.5719V84.3851C140.702 86.9634 146.941 89.1226 152.898 90.8472C157.243 78.3255 159.233 66.1736 158.961 55.3457C158.54 38.6563 152.843 25.9541 143.155 19.0494L134.273 33.79C134.138 31.7097 133.216 29.7405 131.669 28.2581C131.469 28.0665 131.26 27.8848 131.044 27.7135L138.035 16.1109C126.835 11.0652 112.151 12.5585 96.449 20.7664C88.7715 24.7798 81.0554 30.3135 73.7206 37.1816H65.6612C65.5639 37.1816 65.4668 37.1832 65.3698 37.1862C81.2719 20.9054 99.534 10.5124 116.254 8.04689C92.3204 2.57314 67.186 6.89786 46.8578 19.4787C48.9259 23.1393 51.7045 27.0425 55.158 31.1004C57.1173 33.4027 59.2815 35.7406 61.6371 38.0971C60.7924 38.5043 60.0127 39.041 59.3315 39.6936C58.56 40.4328 57.9439 41.2931 57.5033 42.2277C54.9728 39.705 52.644 37.1945 50.5329 34.7137C47.0858 30.6632 44.184 26.6517 41.9294 22.7593C32.4668 29.522 24.2536 38.1998 17.9766 48.6166C13.5693 55.9305 10.4141 63.6079 8.44734 71.4208ZM149.115 160.209C128.007 175.314 100.672 180.882 74.7467 174.953C88.0962 172.985 102.429 165.963 115.759 154.925C122.157 156.781 128.274 158.163 133.983 159.048C139.377 159.885 144.463 160.287 149.115 160.209ZM184.92 95.8503C180.578 95.9647 175.66 95.611 170.265 94.7744C166.576 94.2025 162.69 93.4084 158.648 92.3987C166.384 69.9594 166.979 48.3792 160.555 32.5533C177.47 49.6753 186.128 72.6931 184.92 95.8503Z" fill="url(#paint0_linear_1_8)"/>
<path fill-rule="evenodd" clip-rule="evenodd" d="M58.2309 71.5032V64.7529V61.4735H68.8419L68.8413 54.9839L68.8419 51.4437H79.4529V101.593H90.0642V111.623H79.4529V141.712H68.8419L68.8413 128.129L68.8419 122.26V121.653H67.8101H58.2303L58.2309 115.641V111.623H68.8419V71.5032H58.2309ZM100.675 61.4735H111.176L111.286 61.4736V71.3229L111.286 71.5032V76.8819L111.286 82.5657L111.286 91.5629H90.0642V101.593H111.286V131.682H121.897V121.653H130.218H132.507L132.508 111.623H136.759H142.792H143.119V101.593C143.119 101.593 135.418 98.7665 132.508 101.593C129.637 104.381 132.508 111.623 132.508 111.623H121.897V41.4139H111.286V51.4437H100.675V61.4735ZM100.675 61.4735L100.674 71.5035L91.5146 71.5032H90.0642L90.0633 70.586L90.0642 64.501V61.4735H100.675ZM47.6184 72.0902V81.5333L48.6884 81.5331H58.2301L58.2309 71.5032H47.6191L47.6184 72.0902Z" fill="white"/>
</g>
<defs>
<linearGradient id="paint0_linear_1_8" x1="25.7115" y1="24.6346" x2="89.0721" y2="187.937" gradientUnits="userSpaceOnUse">
<stop stop-color="#FFE27D"/>
<stop offset="0.505208" stop-color="#64E3FF"/>
<stop offset="1" stop-color="#9192FF"/>
</linearGradient>
</defs>
</svg>
